# xmcd
#
# Track frame offsets:
#       225
#       26626
#       49675
#       71167
#       94276
#       114705
#       140966
#       172328
#       189969
#       199914
#       219503
#       241890
#       262795
#
# Disc length: 4047 seconds
#
# Revision: 0
# Processed by: cddbd v1.5.1PL2 Copyright (c) Steve Scherf et al.
# Submitted via: WaveLab 4.01
#
DISCID=c90fcc0d
DTITLE=Ensamble de guitarras eléctricas - Ensamble de guitarras eléctricas
DYEAR=2002
DGENRE=
TTITLE0=Mezcalito Blues
TTITLE1=Heptapán
TTITLE2=Café Brasil
TTITLE3=Back to school
TTITLE4=Más allá de ti
TTITLE5=Ideas
TTITLE6=Odisea
TTITLE7=Mythos
TTITLE8=Sobrinos
TTITLE9=Cerveza Fría
TTITLE10=Las calabazas
TTITLE11=Látigo
TTITLE12=Sintonía XII
EXTD=
EXTT0=
EXTT1=
EXTT2=
EXTT3=
EXTT4=
EXTT5=
EXTT6=
EXTT7=
EXTT8=
EXTT9=
EXTT10=
EXTT11=
EXTT12=
PLAYORDER=
